Exact Audio Copy V0.99 prebeta 4 from 23. January 2008

EAC 抓取日志文件从7. 二月 2013, 13:57

任桂珍 / CCD-97／754_名人百集-任桂珍

使用驱动器  ：TEAC    CD-W540E   Adapter: 3  ID: 0

读取模式     : 保护
使用精确流   : 是
废除音频缓冲 : 是
使用 C2 指针 : 否

读取偏移校正                   : 686
读取 Lead-In 和 Lead-Out       : 否
用静音填充抓取中丢失偏移的采样 : 是
去除首尾静音块                 : 否
在 CRC 计算中使用了空样本      : 是
已用接口                       : Win NT 及 2000 本地 Win32 接口

所用输出格式 : 内部 WAV 函数
样本格式     : 44.100 Hz;16 Bit;立体声


被抓轨 CD 的 TOC

     音轨 |   开始   |   长度   | 起始扇区 | 结尾扇区 
    --------------------------------------------------
       1  |  0:00.00 |  3:37.22 |       0  |   16296  
       2  |  3:37.22 |  2:35.33 |   16297  |   27954  
       3  |  6:12.55 |  3:36.37 |   27955  |   44191  
       4  |  9:49.17 |  2:25.40 |   44192  |   55106  
       5  | 12:14.57 |  3:08.45 |   55107  |   69251  
       6  | 15:23.27 |  4:11.53 |   69252  |   88129  
       7  | 19:35.05 |  4:46.52 |   88130  |  109631  
       8  | 24:21.57 |  3:50.05 |  109632  |  126886  
       9  | 28:11.62 |  8:18.33 |  126887  |  164269  
      10  | 36:30.20 |  1:22.42 |  164270  |  170461  
      11  | 37:52.62 |  3:42.15 |  170462  |  187126  
      12  | 41:35.02 |  4:27.18 |  187127  |  207169  
      13  | 46:02.20 |  3:21.27 |  207170  |  222271  
      14  | 49:23.47 |  5:36.28 |  222272  |  247499  


范围状态及错误

已选择范围

     文件名 D:\行板如歌原抓\名人百集-任桂珍.wav

     峰值电平 100.0 %
     范围质量 100.0 %
     复制 CRC 8D1D9309
     复制成功

没有错误发生

状态报告结尾
